<svg xmlns="http://www.w3.org/2000/svg" xmlns:xlink="http://www.w3.org/1999/xlink" width="500" zoomAndPan="magnify" viewBox="0 0 375 374.999991" height="500" preserveAspectRatio="xMidYMid meet" version="1.0"><defs><clipPath id="c8355c764c"><path d="M 128.789062 126.5 L 246.539062 126.5 L 246.539062 248.75 L 128.789062 248.75 Z M 128.789062 126.5 " clip-rule="nonzero"/></clipPath></defs><rect x="-37.5" width="450" fill="#ffffff" y="-37.499999" height="449.999989" fill-opacity="1"/><rect x="-37.5" width="450" fill="#ffffff" y="-37.499999" height="449.999989" fill-opacity="1"/><g clip-path="url(#c8355c764c)"><path fill="#333333" d="M 246.539062 126.757812 L 214.050781 170.925781 C 213.386719 170.160156 212.695312 169.421875 211.980469 168.707031 C 211.414062 168.140625 210.847656 167.597656 210.277344 167.082031 L 239.933594 126.757812 Z M 218.042969 186.515625 C 215.777344 181.171875 212.546875 176.394531 208.429688 172.28125 C 204.3125 168.167969 199.53125 164.9375 194.183594 162.671875 C 188.660156 160.332031 182.796875 159.152344 176.730469 159.152344 L 172.492188 159.152344 L 152.402344 131.832031 L 178.753906 131.832031 C 188.710938 131.832031 196.820312 139.9375 196.820312 149.890625 C 196.820312 152.648438 196.203125 155.285156 195.070312 157.625 C 196.648438 158.386719 198.226562 159.222656 199.628906 160.40625 C 201.234375 157.253906 202.121094 153.683594 202.121094 149.890625 C 202.121094 137.007812 191.621094 126.511719 178.726562 126.511719 L 141.878906 126.511719 L 145.796875 131.832031 L 165.886719 159.152344 L 169.804688 164.472656 L 183.953125 183.683594 L 187.40625 179.398438 L 176.410156 164.445312 L 176.730469 164.445312 C 187.28125 164.445312 197.214844 168.558594 204.660156 176 C 212.128906 183.464844 216.21875 193.367188 216.21875 203.90625 C 216.21875 214.449219 212.101562 224.378906 204.660156 231.816406 C 200.542969 235.929688 195.710938 239.007812 190.410156 240.957031 L 190.410156 203.019531 L 195.5625 196.027344 L 204.660156 183.660156 C 203.597656 182.207031 202.414062 180.828125 201.109375 179.523438 C 201.109375 179.523438 201.109375 179.523438 201.085938 179.496094 L 193.320312 190.039062 L 187.726562 197.625 L 135.542969 126.511719 L 128.789062 126.511719 L 185.085938 203.070312 L 185.085938 242.53125 C 182.820312 243.023438 180.476562 243.296875 178.113281 243.394531 L 178.113281 243.417969 C 178.113281 243.417969 177.644531 243.417969 178.113281 243.394531 L 178.113281 203.339844 L 172.8125 195.976562 L 172.886719 248.738281 L 176.757812 248.738281 C 182.796875 248.738281 188.6875 247.558594 194.207031 245.21875 C 199.558594 242.949219 204.339844 239.722656 208.457031 235.609375 C 212.570312 231.496094 215.800781 226.71875 218.066406 221.371094 C 220.410156 215.855469 221.59375 209.992188 221.59375 203.933594 C 221.570312 197.898438 220.386719 192.035156 218.042969 186.515625 Z M 178.136719 243.445312 L 178.136719 243.417969 C 177.667969 243.417969 178.136719 243.445312 178.136719 243.445312 Z M 178.136719 243.445312 " fill-opacity="1" fill-rule="nonzero"/></g></svg>